<?xml version="1.0" standalone="no"?>
<!DOCTYPE svg PUBLIC "-//W3C//DTD SVG 20010904//EN"
 "http://www.w3.org/TR/2001/REC-SVG-20010904/DTD/svg10.dtd">
<svg version="1.0" xmlns="http://www.w3.org/2000/svg"
 width="100.000000pt" height="100.000000pt" viewBox="0 0 100.000000 100.000000"
 preserveAspectRatio="xMidYMid meet">
<metadata>
Created by potrace 1.11, written by Peter Selinger 2001-2013
</metadata>
<g transform="translate(0.000000,100.000000) scale(0.100000,-0.100000)"
fill="#000000" stroke="none">
<path d="M210 930 c0 -16 -4 -30 -10 -30 -7 0 -10 -152 -10 -435 l0 -435 85 0
c78 0 88 2 110 25 22 21 25 33 25 90 0 37 4 65 10 65 6 0 10 33 10 80 0 47 -4
80 -10 80 -6 0 -10 28 -10 65 0 37 4 65 10 65 6 0 10 9 10 20 0 11 5 20 10 20
6 0 10 7 10 16 0 9 13 29 30 44 16 15 30 33 30 39 0 15 46 61 61 61 6 0 24 14
39 30 15 17 35 30 44 30 9 0 16 5 16 10 0 6 29 10 66 10 84 0 94 10 94 90 0
84 -8 90 -114 90 -51 0 -86 -4 -86 -10 0 -5 -13 -10 -30 -10 -16 0 -30 -4 -30
-10 0 -5 -7 -10 -16 -10 -9 0 -29 -13 -44 -30 -15 -16 -34 -30 -42 -30 -7 0
-20 -9 -28 -20 -22 -30 -30 -24 -30 20 0 22 -4 40 -10 40 -5 0 -10 7 -10 16 0
33 -26 44 -104 44 l-76 0 0 -30z"/>
</g>
</svg>
