<svg width="1440" height="1024" viewBox="0 0 1440 1024" fill="none" xmlns="http://www.w3.org/2000/svg">
<g clip-path="url(#clip0)">
<rect width="1440" height="1024" fill="url(#paint0_linear)"/>
<path d="M1207 322C1207 322 1224.6 213.7 1441 200.5V678V1018.5L894.5 1024.5H497.5L6 1018.5V1007C4 982.333 1.2 921.1 6 887.5C12 845.5 9.5 843 29.5 816C49.5 789 70.5 778.5 96 763.5C122.528 747.895 208.5 705 269.5 694.5L458 678C508 678 618.314 672 678 672C762 672 849 667.5 907.5 665C966 662.5 982 671 1038.5 634.5C1083.7 605.3 1099 577.5 1117 536.5L1207 322Z" fill="url(#paint1_linear)" stroke="black"/>
</g>
<defs>
<linearGradient id="paint0_linear" x1="1314.5" y1="114" x2="7.00007" y2="1015" gradientUnits="userSpaceOnUse">
<stop stop-color="#00FCB0"/>
<stop offset="0.557292" stop-color="#0AC0D9" stop-opacity="0.458333"/>
<stop offset="1" stop-color="#127DFC" stop-opacity="0"/>
</linearGradient>
<linearGradient id="paint1_linear" x1="167.5" y1="761" x2="1135.5" y2="796.5" gradientUnits="userSpaceOnUse">
<stop stop-color="#09F7B5"/>
<stop offset="1" stop-color="#00FCB0" stop-opacity="0"/>
</linearGradient>
<clipPath id="clip0">
<rect width="1440" height="1024" fill="white"/>
</clipPath>
</defs>
</svg>
