<svg width="1900" height="1024" viewBox="0 0 1900 1024" fill="none" xmlns="http://www.w3.org/2000/svg">
<g clip-path="url(#clip0)">
<rect width="1900" height="1024" fill="url(#paint0_linear)"/>
<g filter="url(#filter0_d)">
<path d="M1591.23 321.647C1591.23 321.647 1614.46 213.216 1900 200V678.079V1018.99L1178.89 1025H655.038L6.49715 1018.99L-2.40803e-05 1002.5C-2.32299 980.761 -0.556402 926.139 -0.0999345 894.498C-0.09981 894.44 -0.0994477 894.383 -0.0988483 894.325C-0.0664374 880.613 2.67029e-05 856.098 2.64645e-05 883C2.64645e-05 886.181 -0.0348538 889.883 -0.0925857 893.983C0.903051 855.972 102.106 774.015 125.253 763.683C160.258 748.06 242.51 715.513 323 705L602 689.5C667.976 689.5 814.244 679 893 679C1003.84 679 1026.81 681.503 1104 679C1181.19 676.497 1247.5 679.079 1334.5 653.5C1398.22 634.764 1448.73 577.457 1472.48 536.408L1591.23 321.647Z" fill="url(#paint1_linear)"/>
</g>
</g>
<defs>
<filter id="filter0_d" x="-41.1729" y="150" width="2001.17" height="925" filterUnits="userSpaceOnUse" color-interpolation-filters="sRGB">
<feFlood flood-opacity="0" result="BackgroundImageFix"/>
<feColorMatrix in="SourceAlpha" type="matrix" values="0 0 0 0 0 0 0 0 0 0 0 0 0 0 0 0 0 0 127 0"/>
<feOffset dx="10"/>
<feGaussianBlur stdDeviation="25"/>
<feColorMatrix type="matrix" values="0 0 0 0 0.263542 0 0 0 0 0.6875 0 0 0 0 0.611187 0 0 0 0.53 0"/>
<feBlend mode="normal" in2="BackgroundImageFix" result="effect1_dropShadow"/>
<feBlend mode="normal" in="SourceGraphic" in2="effect1_dropShadow" result="shape"/>
</filter>
<linearGradient id="paint0_linear" x1="1734.41" y1="114" x2="341.521" y2="1380.46" gradientUnits="userSpaceOnUse">
<stop stop-color="#00FCB0"/>
<stop offset="0.557292" stop-color="#0AC0D9" stop-opacity="0.458333"/>
<stop offset="1" stop-color="#127DFC" stop-opacity="0"/>
</linearGradient>
<linearGradient id="paint1_linear" x1="2.53865" y1="1009.98" x2="1324.94" y2="591.206" gradientUnits="userSpaceOnUse">
<stop stop-color="#55E8BC"/>
<stop offset="1" stop-color="#43D4E8"/>
</linearGradient>
<clipPath id="clip0">
<rect width="1900" height="1024" fill="white"/>
</clipPath>
</defs>
</svg>
